<?xml version="1.0" standalone="no"?>
<svg xmlns="http://www.w3.org/2000/svg" viewBox="0 0 228.22 29" width="228.22" height="29"><g fill="#ff5576" color="#ff5576" transform="translate(0, 0) scale(0.5686275)"><svg width="44.0" height="51.0" x="0.0" y="0.0" viewBox="0 0 44 51"><path fill="currentColor" fill-rule="evenodd" d="M21.998 0L0 12.571v25.143l4.19 2.395V15.002L21.999 4.827 39.81 15.002v20.28L21.998 45.459l-9.427-5.388V19.865l9.427-5.386 9.43 5.386v10.553l-9.43 5.387-1.045-.597V24.73l5.268-3.012-4.223-2.413-5.236 2.994v15.34l5.236 2.993 13.62-7.784V17.435l-13.62-7.781-13.617 7.78v25.068l13.617 7.784L44 37.714V12.571z"></path></svg></g><line x1="37.02" y1="1" x2="37.02" y2="28" stroke="#0b0cac" stroke-linecap="round"></line><path fill="#0b0cac" fill-rule="nonzero" d="M13.61 13.39Q13.61 14.59 13.96 15.01Q14.30 15.43 15.26 15.48L15.26 15.48Q15.38 15.82 15.38 16.51L15.38 16.51Q13.94 16.44 12.48 16.44L12.48 16.44Q10.80 16.44 9.58 16.51L9.58 16.51Q9.58 15.82 9.70 15.48L9.70 15.48Q10.66 15.43 11.00 15.01Q11.35 14.59 11.35 13.39L11.35 13.39L11.35 8.64Q5.86 8.64 4.03 8.78L4.03 8.78L4.03 13.39Q4.03 14.59 4.38 15.01Q4.73 15.43 5.69 15.48L5.69 15.48Q5.81 15.82 5.81 16.51L5.81 16.51Q4.37 16.44 2.90 16.44L2.90 16.44Q1.22 16.44 0 16.51L0 16.51Q0 15.82 0.12 15.48L0.12 15.48Q1.08 15.43 1.43 15.01Q1.78 14.59 1.78 13.39L1.78 13.39L1.78 3.26Q1.78 2.06 1.43 1.64Q1.08 1.22 0.12 1.18L0.12 1.18Q0 0.84 0 0.14L0 0.14Q1.32 0.22 2.90 0.22L2.90 0.22Q4.37 0.22 5.81 0.14L5.81 0.14Q5.81 0.84 5.69 1.18L5.69 1.18Q4.73 1.22 4.38 1.64Q4.03 2.06 4.03 3.26L4.03 3.26L4.03 7.61L11.35 7.61L11.35 3.26Q11.35 2.06 11.00 1.64Q10.66 1.22 9.70 1.18L9.70 1.18Q9.58 0.84 9.58 0.14L9.58 0.14Q10.90 0.22 12.48 0.22L12.48 0.22Q13.94 0.22 15.38 0.14L15.38 0.14Q15.38 0.84 15.26 1.18L15.26 1.18Q14.30 1.22 13.96 1.64Q13.61 2.06 13.61 3.26L13.61 3.26L13.61 13.39ZM23.23 16.66Q21.84 16.66 20.74 16.28Q19.63 15.91 18.36 15.12L18.36 15.12Q18.58 13.78 18.58 11.71L18.58 11.71Q19.13 11.57 19.87 11.57L19.87 11.57Q19.97 13.49 20.84 14.50Q21.72 15.50 23.57 15.50L23.57 15.50Q25.13 15.50 25.88 14.82Q26.64 14.14 26.64 13.01L26.64 13.01Q26.64 12.07 26.16 11.42Q25.68 10.78 24.98 10.36Q24.29 9.94 23.04 9.36L23.04 9.36Q21.60 8.66 20.74 8.11Q19.87 7.56 19.26 6.64Q18.65 5.71 18.65 4.32L18.65 4.32Q18.65 2.30 19.94 1.15Q21.24 0 23.47 0L23.47 0Q24.65 0 25.73 0.30Q26.81 0.60 27.48 1.06L27.48 1.06Q27.48 3.19 27.62 4.22L27.62 4.22Q27.10 4.44 26.28 4.44L26.28 4.44Q25.94 2.47 25.27 1.76Q24.60 1.06 23.45 1.06L23.45 1.06Q22.18 1.06 21.46 1.68Q20.74 2.30 20.74 3.43L20.74 3.43Q20.74 4.37 21.23 5.04Q21.72 5.71 22.43 6.14Q23.14 6.58 24.38 7.20L24.38 7.20Q25.80 7.87 26.65 8.42Q27.50 8.98 28.10 9.86Q28.70 10.75 28.70 12.05L28.70 12.05Q28.70 13.30 28.12 14.34Q27.53 15.38 26.29 16.02Q25.06 16.66 23.23 16.66L23.23 16.66ZM48.05 0.14L48.02 1.01Q48.02 1.97 48.19 3.98L48.19 3.98Q47.69 4.22 46.99 4.20L46.99 4.20Q46.94 2.76 46.30 2.02Q45.65 1.27 44.28 1.27L44.28 1.27L43.01 1.27L43.01 13.39Q43.01 14.23 43.15 14.65Q43.30 15.07 43.69 15.25Q44.09 15.43 44.88 15.48L44.88 15.48Q45 15.82 45 16.51L45 16.51Q43.46 16.44 41.86 16.44L41.86 16.44Q40.06 16.44 38.71 16.51L38.71 16.51Q38.71 15.82 38.83 15.48L38.83 15.48Q39.62 15.43 40.03 15.25Q40.44 15.07 40.60 14.64Q40.75 14.21 40.75 13.39L40.75 13.39L40.75 1.27L39.53 1.27Q38.42 1.27 37.82 1.62Q37.22 1.97 36.97 2.56Q36.72 3.14 36.53 4.20L36.53 4.20Q35.74 4.20 35.38 3.98L35.38 3.98Q35.76 1.82 35.76 0.14L35.76 0.14Q37.10 0.22 41.88 0.22L41.88 0.22Q46.73 0.22 48.05 0.14L48.05 0.14ZM60.43 13.03Q61.08 13.15 61.49 13.56L61.49 13.56Q61.06 14.69 60.84 16.46L60.84 16.46L56.21 16.44Q52.75 16.44 50.64 16.49L50.64 16.49Q50.64 15.74 50.76 15.41L50.76 15.41Q51.36 15.36 51.66 15.22Q51.96 15.07 52.08 14.69Q52.20 14.30 52.20 13.54L52.20 13.54L52.20 7.22Q52.20 6.53 52.07 6.17Q51.94 5.81 51.64 5.66Q51.34 5.52 50.76 5.47L50.76 5.47Q50.64 5.11 50.64 4.39L50.64 4.39Q52.37 4.44 54.41 4.44L54.41 4.44Q58.82 4.44 60.31 4.39L60.31 4.39Q60.58 6.65 60.77 7.37L60.77 7.37Q60.36 7.63 59.69 7.63L59.69 7.63Q59.59 6.62 58.86 6.05Q58.13 5.47 56.28 5.47L56.28 5.47L54.41 5.47L54.41 9.89L55.61 9.89Q56.88 9.89 57.37 9.60Q57.86 9.31 57.89 8.54L57.89 8.54Q58.42 8.38 58.99 8.38L58.99 8.38Q58.94 8.98 58.94 10.39L58.94 10.39Q58.94 11.93 58.99 12.48L58.99 12.48Q58.34 12.48 57.94 12.34L57.94 12.34Q57.86 11.54 57.37 11.26Q56.88 10.97 55.61 10.97L55.61 10.97L54.41 10.97L54.41 13.49Q54.41 14.26 54.56 14.65Q54.72 15.05 55.12 15.20Q55.51 15.36 56.30 15.36L56.30 15.36L56.45 15.36Q57.84 15.36 58.60 15.12Q59.35 14.88 59.72 14.41Q60.10 13.94 60.43 13.03L60.43 13.03ZM76.03 5.21Q75.79 6.12 75.79 7.94L75.79 7.94Q75.34 8.16 74.59 8.16L74.59 8.16Q74.52 6.60 73.74 5.96Q72.96 5.33 71.50 5.33L71.50 5.33Q69.10 5.33 67.90 6.65Q66.70 7.97 66.70 9.89L66.70 9.89Q66.70 11.40 67.33 12.61Q67.97 13.82 69.16 14.52Q70.34 15.22 71.98 15.22L71.98 15.22Q72.96 15.22 73.99 14.99Q75.02 14.76 75.89 14.33L75.89 14.33Q76.03 14.45 76.15 14.68Q76.27 14.90 76.30 15.10L76.30 15.10Q74.95 15.86 73.75 16.24Q72.55 16.61 71.04 16.61L71.04 16.61Q69.07 16.61 67.54 15.82Q66 15.02 65.14 13.61Q64.27 12.19 64.27 10.37L64.27 10.37Q64.27 8.42 65.26 7.04Q66.24 5.66 67.86 4.97Q69.48 4.27 71.35 4.27L71.35 4.27Q72.62 4.27 73.73 4.50Q74.83 4.73 76.03 5.21L76.03 5.21ZM90.96 4.44Q91.87 4.44 92.98 4.39L92.98 4.39Q92.98 5.11 92.88 5.47L92.88 5.47Q92.38 5.52 92.11 5.74Q91.85 5.95 91.74 6.47Q91.63 6.98 91.63 7.99L91.63 7.99L91.63 16.46Q91.32 16.61 90.65 16.61L90.65 16.61L82.03 7.08L82.03 12.84Q82.03 13.87 82.16 14.40Q82.30 14.93 82.61 15.14Q82.92 15.36 83.52 15.41L83.52 15.41Q83.64 15.79 83.64 16.49L83.64 16.49Q82.34 16.44 81.50 16.44L81.50 16.44Q80.38 16.44 79.32 16.49L79.32 16.49Q79.32 15.79 79.44 15.41L79.44 15.41Q80.04 15.36 80.34 15.14Q80.64 14.93 80.77 14.40Q80.90 13.87 80.90 12.84L80.90 12.84L80.90 5.83L80.88 5.81Q80.71 5.64 80.45 5.58Q80.18 5.52 79.44 5.47L79.44 5.47Q79.32 5.04 79.32 4.39L79.32 4.39Q80.18 4.44 81 4.44L81 4.44Q81.74 4.44 82.51 4.39L82.51 4.39L90.50 13.34L90.50 7.99Q90.50 6.98 90.37 6.47Q90.24 5.95 89.93 5.74Q89.62 5.52 88.99 5.47L88.99 5.47Q88.90 4.92 88.90 4.39L88.90 4.39Q90.10 4.44 90.96 4.44L90.96 4.44ZM103.10 16.66Q101.04 16.66 99.46 15.89Q97.87 15.12 97.00 13.73Q96.12 12.34 96.12 10.49L96.12 10.49Q96.12 8.66 97.00 7.25Q97.87 5.83 99.47 5.05Q101.06 4.27 103.15 4.27L103.15 4.27Q105.22 4.27 106.80 5.04Q108.38 5.81 109.26 7.21Q110.14 8.62 110.14 10.44L110.14 10.44Q110.14 12.29 109.26 13.69Q108.38 15.10 106.79 15.88Q105.19 16.66 103.10 16.66L103.10 16.66ZM103.44 15.55Q105.38 15.55 106.52 14.26Q107.66 12.96 107.66 10.80L107.66 10.80Q107.66 9.24 107.04 8.00Q106.42 6.77 105.30 6.07Q104.18 5.38 102.79 5.38L102.79 5.38Q100.85 5.38 99.72 6.68Q98.59 7.99 98.59 10.13L98.59 10.13Q98.59 11.74 99.22 12.97Q99.84 14.21 100.94 14.88Q102.05 15.55 103.44 15.55L103.44 15.55ZM119.09 15.36Q120.22 15.36 120.88 15.13Q121.54 14.90 121.93 14.41Q122.33 13.92 122.69 13.03L122.69 13.03Q123.34 13.15 123.74 13.56L123.74 13.56Q123.31 14.69 123.10 16.46L123.10 16.46L118.85 16.44Q115.39 16.44 113.28 16.49L113.28 16.49Q113.28 15.74 113.40 15.41L113.40 15.41Q113.98 15.36 114.29 15.22Q114.60 15.07 114.73 14.69Q114.86 14.30 114.86 13.54L114.86 13.54L114.86 7.22Q114.86 6.53 114.73 6.17Q114.60 5.81 114.30 5.66Q114.00 5.52 113.40 5.47L113.40 5.47Q113.30 5.09 113.30 4.39L113.30 4.39Q115.03 4.44 115.97 4.44L115.97 4.44Q116.95 4.44 118.63 4.39L118.63 4.39Q118.63 5.11 118.51 5.47L118.51 5.47Q117.67 5.52 117.37 5.87Q117.07 6.22 117.07 7.25L117.07 7.25L117.07 13.49Q117.07 14.26 117.22 14.65Q117.36 15.05 117.76 15.20Q118.15 15.36 118.94 15.36L118.94 15.36L119.09 15.36ZM133.01 16.66Q130.94 16.66 129.36 15.89Q127.78 15.12 126.90 13.73Q126.02 12.34 126.02 10.49L126.02 10.49Q126.02 8.66 126.90 7.25Q127.78 5.83 129.37 5.05Q130.97 4.27 133.06 4.27L133.06 4.27Q135.12 4.27 136.70 5.04Q138.29 5.81 139.16 7.21Q140.04 8.62 140.04 10.44L140.04 10.44Q140.04 12.29 139.16 13.69Q138.29 15.10 136.69 15.88Q135.10 16.66 133.01 16.66L133.01 16.66ZM133.34 15.55Q135.29 15.55 136.43 14.26Q137.57 12.96 137.57 10.80L137.57 10.80Q137.57 9.24 136.94 8.00Q136.32 6.77 135.20 6.07Q134.09 5.38 132.70 5.38L132.70 5.38Q130.75 5.38 129.62 6.68Q128.50 7.99 128.50 10.13L128.50 10.13Q128.50 11.74 129.12 12.97Q129.74 14.21 130.85 14.88Q131.95 15.55 133.34 15.55L133.34 15.55ZM149.66 16.61Q147.60 16.61 146.02 15.82Q144.43 15.02 143.56 13.60Q142.68 12.17 142.68 10.32L142.68 10.32Q142.68 8.40 143.71 7.04Q144.74 5.69 146.42 4.99Q148.10 4.30 150.02 4.30L150.02 4.30Q151.49 4.30 152.82 4.52Q154.15 4.75 155.06 5.16L155.06 5.16Q154.85 6.07 154.85 7.92L154.85 7.92Q154.42 8.11 153.62 8.11L153.62 8.11Q153.55 6.60 152.64 5.98Q151.73 5.35 150.17 5.35L150.17 5.35Q148.51 5.35 147.37 5.98Q146.23 6.60 145.68 7.64Q145.13 8.69 145.13 9.91L145.13 9.91Q145.13 12.36 146.41 13.90Q147.70 15.43 150.07 15.43L150.07 15.43Q150.82 15.43 151.22 15.41Q151.63 15.38 152.06 15.26L152.06 15.26Q152.45 15.17 152.62 14.89Q152.78 14.62 152.78 13.97L152.78 13.97L152.78 13.22Q152.78 12.53 152.66 12.23Q152.54 11.93 152.18 11.82Q151.82 11.71 151.01 11.69L151.01 11.69Q150.86 11.26 150.86 10.58L150.86 10.58Q151.42 10.63 153.48 10.63L153.48 10.63Q155.52 10.63 156 10.58L156 10.58Q156 11.26 155.88 11.69L155.88 11.69Q155.42 11.71 155.23 11.82Q155.04 11.93 154.97 12.20Q154.90 12.48 154.90 13.08L154.90 13.08L154.90 13.68Q154.90 14.23 154.96 14.56Q155.02 14.88 155.18 15.24L155.18 15.24Q154.22 15.86 152.80 16.24Q151.37 16.61 149.66 16.61L149.66 16.61ZM159.86 16.49Q159.86 15.74 159.98 15.41L159.98 15.41Q160.58 15.36 160.88 15.22Q161.18 15.07 161.30 14.71Q161.42 14.35 161.42 13.63L161.42 13.63L161.42 7.22Q161.42 6.53 161.30 6.17Q161.18 5.81 160.88 5.66Q160.58 5.52 159.98 5.47L159.98 5.47Q159.86 5.11 159.86 4.39L159.86 4.39Q161.40 4.44 162.55 4.44L162.55 4.44Q163.51 4.44 165.19 4.39L165.19 4.39Q165.19 5.14 165.10 5.47L165.10 5.47Q164.23 5.52 163.93 5.86Q163.63 6.19 163.63 7.22L163.63 7.22L163.63 13.63Q163.63 14.66 163.93 15.01Q164.23 15.36 165.10 15.41L165.10 15.41Q165.19 15.77 165.19 16.49L165.19 16.49Q163.56 16.44 162.55 16.44L162.55 16.44Q161.35 16.44 159.86 16.49L159.86 16.49ZM181.08 15.41Q181.20 15.77 181.20 16.49L181.20 16.49Q180.24 16.44 178.73 16.44L178.73 16.44Q177.14 16.44 176.18 16.49L176.18 16.49Q176.18 15.74 176.33 15.41L176.33 15.41Q176.88 15.34 177.11 15.20Q177.34 15.07 177.34 14.81L177.34 14.81Q177.34 14.59 177.10 14.06L177.10 14.06L176.62 13.03Q173.16 13.03 171.17 13.15L171.17 13.15L170.90 13.78Q170.66 14.33 170.66 14.64L170.66 14.64Q170.66 15.31 171.65 15.41L171.65 15.41Q171.79 15.84 171.79 16.49L171.79 16.49Q170.88 16.44 169.80 16.44L169.80 16.44Q168.86 16.44 168.10 16.49L168.10 16.49Q168.10 15.91 168.24 15.41L168.24 15.41Q168.77 15.31 169.06 14.96Q169.34 14.62 169.82 13.56L169.82 13.56L173.95 4.42Q174.41 4.32 174.91 4.32L174.91 4.32L179.33 13.49Q179.86 14.59 180.23 14.98Q180.60 15.36 181.08 15.41L181.08 15.41ZM171.65 12.05L176.14 12.05L174.70 9.02Q174.07 7.75 173.83 7.01L173.83 7.01Q173.64 7.61 173.36 8.20Q173.09 8.78 173.02 8.93L173.02 8.93L171.65 12.05Z" transform="translate(47.02, 6.28)"></path></svg>